Coordinates
version=1
nRows=19
nColumns=36
inDegrees=yes

Units are S.I. units (second, meters, Newtons, ...)
If the header above contains a line with 'inDegrees', this indicates whether rotational values are in degrees (yes) or radians (no).

endheader
time	pelvis_tilt	pelvis_list	pelvis_rotation	pelvis_tx	pelvis_ty	pelvis_tz	hip_flexion_r	hip_adduction_r	hip_rotation_r	knee_angle_r	knee_angle_r_beta	ankle_angle_r	subtalar_angle_r	mtp_angle_r	hip_flexion_l	hip_adduction_l	hip_rotation_l	knee_angle_l	knee_angle_l_beta	ankle_angle_l	subtalar_angle_l	mtp_angle_l	lumbar_extension	lumbar_bending	lumbar_rotation	arm_flex_r	arm_add_r	arm_rot_r	elbow_flex_r	pro_sup_r	arm_flex_l	arm_add_l	arm_rot_l	elbow_flex_l	pro_sup_l
      0.00000000	     -1.08043451	      0.16239514	      0.51510239	      0.34612780	      0.94299008	      0.00086260	     -2.19971759	     -7.86043654	     -4.39020870	      7.66249872	      0.13373583	     -3.92444609	    -20.27683326	     -6.09865109	      2.02647286	     -9.17702091	     -1.21749847	      8.97291605	      0.15660693	      2.34053551	     -7.78826046	     -6.09865109	    -11.13978206	     -0.05618697	      1.94319152	     11.56194968	     -7.54280475	      8.09569040	     27.01868212	     81.24997170	     10.70006231	     -4.94319344	      8.22618602	     23.47578043	     72.99881023
      0.01694910	     -2.68043996	      0.37653168	      0.80740297	      0.34711985	      0.93608152	      0.00042317	     -0.72329716	     -8.20691584	     -4.27707177	      7.41161692	      0.12935712	     -0.08551845	    -17.87270221	     -6.27070030	      3.94666645	     -8.55977201	     -0.20173422	      8.02590964	      0.14007855	      2.87356115	     -6.33330701	     -6.27070030	     -8.54432884	     -0.11641276	      1.82312865	     10.87364263	     -6.62660494	      2.10456494	     27.39491703	     79.95066119	     10.69930155	     -3.75927487	      1.18208909	     23.18798335	     71.72580664
      0.03389830	     -2.90908247	      0.61026053	      0.91222873	      0.34707663	      0.93966964	      0.00121861	     -0.91663705	     -8.54115459	     -4.89383253	      6.54794656	      0.11428323	     -0.24234166	    -18.35992697	     -6.37914189	      3.59514967	     -8.47919749	     -0.06747879	      6.49769440	      0.11340616	      2.24738970	     -5.07944994	     -6.37914189	     -8.66450440	     -0.57028560	      1.60580668	     11.15893403	     -6.19707222	      0.95380476	     27.75667833	     78.89227485	     11.52720301	     -3.88228731	      0.07642531	     23.36788378	     70.97711176
      0.05084750	     -2.18702543	      0.92158288	      0.95221623	      0.34619222	      0.94311914	      0.00125329	     -1.97194726	     -8.91392342	     -5.27605147	      5.83149124	      0.10177872	      0.02132552	    -18.22486932	     -6.46895602	      2.06775190	     -8.23069566	      0.18884505	      5.03635881	      0.08790104	      1.53338265	     -5.00215576	     -6.46895602	     -9.81797269	     -1.06697292	      1.86766378	     11.61361465	     -5.81651400	      0.10526056	     28.26581846	     77.70853079	     12.40582106	     -4.04248628	     -0.59813326	     23.44928756	     70.02502698
      0.06779660	     -1.65043974	      0.95721200	      0.89922766	      0.34583194	      0.94364289	      0.00188054	     -2.75658388	     -8.87462801	     -5.71465460	      5.27658085	      0.09209371	      0.46898455	    -17.83962480	     -6.55179820	      0.94157099	     -8.23840263	      0.53962841	      3.94766506	      0.06889975	      1.16087290	     -4.96893247	     -6.55179820	    -10.78250274	     -1.04185190	      2.14947421	     12.40203262	     -5.65861817	     -0.06559162	     29.21591315	     76.94529366	     13.28927746	     -3.88298410	     -0.84692792	     23.55930645	     69.39251834
      0.08474580	     -1.06079403	      0.95016221	      0.74733838	      0.34514246	      0.94397741	      0.00225908	     -3.43446628	     -8.79300915	     -6.14989364	      5.05546490	      0.08823451	      0.58142418	    -18.11260080	     -6.58571982	      0.06589632	     -8.24020477	      0.66064084	      3.49741904	      0.06104148	      1.17556963	     -4.87263286	     -6.58571982	    -11.69574260	     -1.02709696	      2.45337277	     13.29755144	     -5.51764356	      0.33768744	     30.20634564	     76.97694796	     14.34338506	     -3.66540287	     -0.90984558	     23.46058612	     69.27004973
      0.10169490	     -0.59481558	      0.91075513	      0.61605654	      0.34458341	      0.94684959	      0.00246715	     -3.97352426	     -8.69332557	     -6.62545644	      4.80719406	      0.08390136	      0.43843536	    -18.39148668	     -6.68161365	     -0.54083891	     -8.30719917	      0.61777801	      3.22620078	      0.05630783	      1.08943964	     -4.68180801	     -6.68161365	    -12.38363548	     -1.06104831	      2.80099768	     14.06588430	     -5.63645408	      0.83752421	     31.47217281	     76.02638292	     15.19955615	     -3.31057009	     -1.02478395	     23.67986887	     68.54573296
      0.11864410	     -0.21222251	      0.92326277	      0.64615485	      0.34375775	      0.94964392	      0.00221711	     -4.47087910	     -8.61800033	     -6.93925257	      4.62484536	      0.08071878	      0.13470860	    -18.69094495	     -6.73687864	     -0.95197019	     -8.30817730	      0.84084928	      3.12880999	      0.05460804	      0.87759897	     -4.80033227	     -6.73687864	    -12.96817229	     -1.19838242	      2.68051522	     15.29445718	     -5.85021306	      1.23126179	     32.49672766	     75.72408875	     16.20910849	     -2.95300989	     -1.04386623	     23.21953616	     68.30047611
      0.13559320	      0.08566232	      0.89415982	      0.71432050	      0.34342372	      0.94960834	      0.00245603	     -4.85559509	     -8.46118659	     -7.21319014	      4.48768273	      0.07832484	      0.08984854	    -18.65487731	     -6.79747648	     -1.23738772	     -8.37249150	      1.02717432	      3.09475149	      0.05401360	      0.57561760	     -4.99112080	     -6.79747648	    -13.31962662	     -1.26379781	      2.63978440	     16.19116684	     -6.16687234	      1.30613329	     33.62815459	     75.29921587	     16.83092651	     -2.64406346	     -1.15394040	     23.00710844	     68.03108492
      0.15254240	      0.21752640	      0.85908431	      0.81728078	      0.34287424	      0.94894448	      0.00238850	     -5.05210557	     -8.30669255	     -7.14605289	      4.38907363	      0.07660379	     -0.15191679	    -19.14285631	     -6.78961658	     -1.33658296	     -8.41972632	      1.08682410	      3.11045765	      0.05428773	      0.31222140	     -5.05533385	     -6.78961658	    -13.47162165	     -1.37520275	      2.61312392	     17.14045683	     -6.28512737	      1.22172940	     33.91894141	     75.32023692	     17.46415147	     -2.39254503	     -1.11255056	     22.79366393	     68.04559244
      0.16949150	      0.31836805	      0.79847978	      1.08682306	      0.34273826	      0.94581435	      0.00264478	     -5.25264339	     -8.13711569	     -7.34164966	      4.33933185	      0.07573563	     -0.06379555	    -19.17912160	     -7.07180818	     -1.30406547	     -8.49755592	      1.34991082	      3.25826887	      0.05686752	      0.18232161	     -5.35870590	     -7.07180818	    -13.53944622	     -1.39535300	      2.72184637	     17.58840321	     -6.02339866	     -1.91136353	     34.98622493	     83.44981627	     18.06561024	     -1.98558637	     -2.63845538	     22.44234011	     73.58966871
      0.18644070	      0.53443543	      0.79638874	      1.26128763	      0.34219441	      0.94903128	      0.00217403	     -5.51613785	     -8.08576463	     -7.52274422	      4.30737955	      0.07517796	     -0.05319671	    -19.34444611	     -7.11912345	     -1.48593737	     -8.49894627	      1.52919050	      3.24238220	      0.05659024	      0.14024779	     -5.32848748	     -7.11912345	    -13.86831732	     -1.49395885	      2.72715068	     18.53198803	     -6.05022754	     -2.43888062	     35.70188292	     81.78528891	     18.46642224	     -1.79924312	     -2.71404059	     23.04573317	     72.50831071
      0.20338980	      0.41976973	      0.80191266	      1.39508391	      0.34228264	      0.95479263	      0.00173233	     -5.45200579	     -8.07388089	     -7.57223359	      4.19678288	      0.07324768	     -0.06971654	    -19.30701917	     -7.12034686	     -1.31613525	     -8.48934642	      1.57424480	      3.21424059	      0.05609908	      0.02933214	     -5.26693526	     -7.12034686	    -13.72996739	     -1.60851590	      2.74679141	     19.46332640	     -6.23390243	     -2.59249360	     35.96047417	     81.77066173	     18.82980027	     -1.62831161	     -2.68592536	     23.13729587	     72.52619644
      0.22033900	      0.85525818	      0.76474646	      1.69128577	      0.34165760	      0.95458733	      0.00150713	     -6.11963914	     -7.93258457	     -7.76157581	      3.85647642	      0.06730821	     -0.30966455	    -19.19456726	     -7.16976427	     -1.67188957	     -8.57212674	      1.80964229	      3.15885587	      0.05513244	     -0.28778739	     -5.16677381	     -7.16976427	    -14.35173320	     -1.60468839	      2.62886863	     20.64882984	     -6.22475170	     -3.80941620	     36.26689445	     79.99543285	     19.34179448	     -1.45983148	     -2.75660327	     23.27804125	     71.52966618
      0.23728810	      0.85249981	      0.79551008	      1.96776449	      0.34166163	      0.95431605	      0.00150633	     -6.24414536	     -7.89712464	     -7.89645567	      3.66133251	      0.06390231	     -0.40967116	    -19.12031439	     -7.29064389	     -1.53750619	     -8.58100765	      2.01495507	      3.16981922	      0.05532378	     -0.64856590	     -5.08571829	     -7.29064389	    -14.29658254	     -1.76506704	      2.75626213	     21.32462180	     -5.97009649	     -6.48911995	     36.58575060	     84.49582793	     19.96796352	     -1.21986006	     -3.23514270	     22.80416744	     75.37959648
      0.25423730	      0.83498993	      0.85228597	      2.19267009	      0.33726211	      0.95375856	     -0.00300532	     -6.22761148	     -8.01302408	     -8.12018947	      3.57350311	      0.06236940	     -0.54225173	    -19.14197045	     -7.29295084	     -1.28991836	     -8.47598495	      2.11621332	      3.23789813	      0.05651198	     -0.85887482	     -4.97228364	     -7.29295084	    -14.36000969	     -1.82484951	      2.62581527	     22.26077085	     -6.18797044	     -6.68433018	     36.89419720	     84.46458073	     20.40762260	     -1.06479952	     -3.36023290	     22.95880196	     75.37676425
      0.27118640	      0.90754348	      0.90158210	      2.37967128	      0.33734845	      0.95385228	     -0.00287890	     -6.31532220	     -8.09088849	     -8.18594760	      3.42840743	      0.05983700	     -0.68299099	    -19.14526931	     -7.35199325	     -1.20400545	     -8.39173402	      2.31129158	      3.24192570	      0.05658228	     -1.09388303	     -4.88478204	     -7.35199325	    -14.49558394	     -1.87921630	      2.36504140	     23.25975411	     -6.27084954	     -7.53842820	     37.21655696	     84.06722020	     20.70443080	     -0.84855673	     -5.60272146	     23.79909687	     75.48138058
      0.28813560	      0.88662443	      0.94276730	      2.57711972	      0.33729662	      0.95635879	     -0.00332574	     -6.33209477	     -8.17097224	     -8.35304138	      3.29986984	      0.05759359	     -0.84392210	    -19.07119900	     -7.35650160	     -1.02103424	     -8.31099860	      2.40121451	      3.23789069	      0.05651185	     -1.40184639	     -4.79070740	     -7.35650160	    -14.47994045	     -1.88228901	      2.27709511	     24.16080551	     -6.60779153	     -7.81518618	     37.59072527	     83.62920537	     21.10644563	     -0.74749167	     -5.64456578	     24.12247403	     75.18952420
      0.30508480	      0.87674089	      0.94569960	      2.72608787	      0.33765964	      0.95298385	     -0.00319307	     -6.33262373	     -8.20681735	     -8.50221579	      3.24717944	      0.05667397	     -0.86640928	    -18.97276840	     -7.37988094	     -0.86346082	     -8.29452212	      2.35959862	      3.28922022	      0.05740772	     -1.43623784	     -4.51550075	     -7.37988094	    -14.41307831	     -1.86562567	      2.10970262	     25.44220552	     -6.63123709	     -7.75954974	     37.92125769	     81.92793408	     21.52664481	     -0.69331868	     -6.11350693	     24.75430027	     74.05115958
